<svg width="24" height="24" viewBox="0 0 24 24" fill="none" xmlns="http://www.w3.org/2000/svg">
<path fill-rule="evenodd" clip-rule="evenodd" d="M23 12L22.9997 13.1L22.9989 13.5556L22.9975 13.9051L22.9956 14.1997L22.9931 14.4592L22.9901 14.6936L22.9865 14.9091L22.9824 15.1096L22.9777 15.2978L22.9725 15.4756L22.9667 15.6446L22.9604 15.8059L22.9535 15.9605L22.9461 16.1091L22.9381 16.2523L22.9295 16.3906L22.9204 16.5245L22.9108 16.6543L22.9006 16.7804L22.8898 16.903L22.8785 17.0223L22.8666 17.1387L22.8542 17.2522L22.8412 17.363L22.8277 17.4714L22.8136 17.5773L22.7989 17.6811L22.7837 17.7826L22.7679 17.8822L22.7515 17.9798L22.7346 18.0755L22.7172 18.1695L22.6991 18.2617L22.6805 18.3523L22.6613 18.4413L22.6416 18.5288L22.6213 18.6148L22.6004 18.6994L22.5789 18.7825L22.5569 18.8644L22.5343 18.9449L22.5111 19.0242L22.4874 19.1022L22.463 19.179L22.4381 19.2547L22.4126 19.3292L22.3865 19.4026L22.3598 19.475L22.3326 19.5462L22.3047 19.6165L22.2763 19.6857L22.2472 19.7539L22.2176 19.8211L22.1874 19.8874L22.1565 19.9527L22.1251 20.0171L22.0931 20.0806L22.0604 20.1431L22.0272 20.2049L21.9933 20.2657L21.9588 20.3257L21.9237 20.3848L21.8879 20.4431L21.8516 20.5006L21.8146 20.5573L21.777 20.6132L21.7387 20.6683L21.6998 20.7226L21.6603 20.7762L21.6201 20.8289L21.5792 20.881L21.5377 20.9323L21.4956 20.9828L21.4528 21.0327L21.4093 21.0818L21.3651 21.1301L21.3203 21.1778L21.2747 21.2248L21.2285 21.2711L21.1816 21.3167L21.134 21.3616L21.0856 21.4058L21.0366 21.4493L20.9868 21.4922L20.9363 21.5344L20.8851 21.576L20.8331 21.6168L20.7804 21.6571L20.7269 21.6967L20.6726 21.7356L20.6176 21.7739L20.5618 21.8116L20.5052 21.8487L20.4477 21.8851L20.3895 21.9209L20.3304 21.956L20.2705 21.9906L20.2097 22.0245L20.1481 22.0578L20.0856 22.0905L20.0222 22.1226L19.9578 22.1541L19.8926 22.1849L19.8264 22.2152L19.7593 22.2449L19.6911 22.274L19.622 22.3025L19.5519 22.3304L19.4807 22.3577L19.4084 22.3844L19.3351 22.4106L19.2607 22.4361L19.1851 22.4611L19.1084 22.4855L19.0304 22.5093L18.9513 22.5325L18.8708 22.5551L18.7891 22.5772L18.706 22.5987L18.6216 22.6196L18.5357 22.64L18.4483 22.6598L18.3595 22.679L18.269 22.6977L18.1769 22.7157L18.0831 22.7333L17.9875 22.7502L17.89 22.7666L17.7906 22.7824L17.6892 22.7977L17.5857 22.8124L17.4799 22.8266L17.3717 22.8402L17.2611 22.8532L17.1478 22.8657L17.0317 22.8776L16.9126 22.8889L16.7903 22.8997L16.6645 22.91L16.535 22.9197L16.4014 22.9288L16.2635 22.9374L16.1207 22.9454L15.9726 22.9529L15.8185 22.9598L15.6577 22.9662L15.4894 22.972L15.3123 22.9773L15.125 22.982L14.9256 22.9862L14.7114 22.9898L14.4786 22.9929L14.2215 22.9954L13.9302 22.9974L13.5862 22.9988L13.1429 22.9997L12.3104 23L10.9447 22.9998L10.4757 22.999L10.1203 22.9977L9.82228 22.9958L9.56048 22.9933L9.32428 22.9904L9.10743 22.9868L8.90587 22.9827L8.71681 22.9781L8.53821 22.9729L8.36855 22.9672L8.20664 22.9609L8.05155 22.9541L7.90252 22.9467L7.75892 22.9387L7.62023 22.9302L7.48601 22.9212L7.35588 22.9116L7.22953 22.9014L7.10668 22.8907L6.98707 22.8794L6.8705 22.8676L6.75677 22.8552L6.64571 22.8423L6.53717 22.8288L6.43101 22.8147L6.32711 22.8001L6.22536 22.7849L6.12565 22.7692L6.0279 22.7529L5.93202 22.736L5.83793 22.7186L5.74555 22.7006L5.65483 22.682L5.5657 22.6629L5.47811 22.6432L5.392 22.6229L5.30732 22.6021L5.22403 22.5807L5.14209 22.5587L5.06145 22.5361L4.98209 22.513L4.90396 22.4893L4.82703 22.465L4.75127 22.4401L4.67665 22.4147L4.60315 22.3886L4.53074 22.362L4.45939 22.3348L4.38909 22.307L4.3198 22.2786L4.25152 22.2496L4.18422 22.22L4.11788 22.1898L4.05248 22.159L3.98801 22.1276L3.92445 22.0956L3.8618 22.063L3.80002 22.0298L3.73911 21.996L3.67906 21.9616L3.61985 21.9265L3.56147 21.8908L3.50392 21.8545L3.44717 21.8176L3.39122 21.78L3.33606 21.7418L3.28168 21.7029L3.22807 21.6634L3.17522 21.6233L3.12313 21.5825L3.07178 21.5411L3.02116 21.499L2.97128 21.4562L2.92212 21.4128L2.87368 21.3686L2.82595 21.3239L2.77892 21.2784L2.73258 21.2322L2.68694 21.1853L2.64199 21.1378L2.59771 21.0895L2.55411 21.0405L2.51119 20.9908L2.46892 20.9404L2.42732 20.8892L2.38638 20.8373L2.34608 20.7846L2.30644 20.7312L2.26744 20.677L2.22908 20.622L2.19135 20.5663L2.15426 20.5097L2.1178 20.4523L2.08197 20.3942L2.04676 20.3352L2.01217 20.2753L1.97819 20.2146L1.94483 20.153L1.91208 20.0906L1.87995 20.0272L1.84841 19.963L1.81748 19.8978L1.78715 19.8317L1.75742 19.7646L1.72829 19.6966L1.69975 19.6275L1.67181 19.5575L1.64445 19.4864L1.61768 19.4142L1.5915 19.341L1.56591 19.2667L1.5409 19.1912L1.51646 19.1145L1.49261 19.0367L1.46934 18.9576L1.44664 18.8773L1.42452 18.7957L1.40297 18.7127L1.382 18.6284L1.3616 18.5426L1.34176 18.4554L1.3225 18.3666L1.3038 18.2763L1.28567 18.1843L1.2681 18.0906L1.2511 17.9952L1.23467 17.8979L1.21879 17.7986L1.20348 17.6974L1.18873 17.594L1.17453 17.4884L1.1609 17.3804L1.14783 17.27L1.13531 17.1569L1.12335 17.041L1.11194 16.9222L1.1011 16.8001L1.0908 16.6746L1.08106 16.5454L1.07188 16.4122L1.06325 16.2746L1.05517 16.1322L1.04765 15.9846L1.04068 15.831L1.03426 15.6708L1.02839 15.5031L1.02307 15.3267L1.01831 15.1403L1.01409 14.942L1.01043 14.7291L1.00731 14.498L1.00475 14.243L1.00274 13.955L1.00128 13.6163L1.00036 13.1843L1 12.439L1.00019 10.9914L1.00092 10.5076L1.00221 10.1461L1.00405 9.8445L1.00644 9.58028L1.00938 9.34231L1.01286 9.12408L1.0169 8.92142L1.02149 8.73145L1.02663 8.55208L1.03233 8.38176L1.03857 8.21927L1.04537 8.06367L1.05272 7.91418L1.06062 7.77016L1.06907 7.6311L1.07808 7.49653L1.08764 7.3661L1.09776 7.23946L1.10843 7.11633L1.11965 6.99648L1.13144 6.87967L1.14378 6.76572L1.15667 6.65445L1.17013 6.54571L1.18414 6.43937L1.19872 6.3353L1.21385 6.23338L1.22955 6.13351L1.24581 6.03561L1.26263 5.93958L1.28001 5.84535L1.29796 5.75284L1.31648 5.66199L1.33556 5.57274L1.35522 5.48502L1.37544 5.3988L1.39623 5.31401L1.4176 5.23061L1.43953 5.14856L1.46205 5.06782L1.48514 4.98835L1.5088 4.91013L1.53305 4.8331L1.55788 4.75725L1.58329 4.68254L1.60928 4.60895L1.63586 4.53646L1.66303 4.46503L1.69079 4.39464L1.71914 4.32528L1.74808 4.25691L1.77762 4.18953L1.80776 4.12312L1.83849 4.05765L1.86984 3.9931L1.90178 3.92948L1.93434 3.86674L1.9675 3.8049L2.00128 3.74392L2.03567 3.6838L2.07069 3.62453L2.10632 3.56608L2.14258 3.50846L2.17947 3.45165L2.21699 3.39564L2.25515 3.34042L2.29395 3.28597L2.33339 3.2323L2.37347 3.17939L2.41421 3.12724L2.4556 3.07583L2.49765 3.02516L2.54037 2.97522L2.58375 2.926L2.62781 2.8775L2.67255 2.82971L2.71797 2.78263L2.76408 2.73624L2.81089 2.69054L2.8584 2.64553L2.90661 2.60121L2.95554 2.55755L3.0052 2.51457L3.05557 2.47226L3.10669 2.4306L3.15855 2.3896L3.21115 2.34926L3.26452 2.30956L3.31865 2.27051L3.37356 2.2321L3.42926 2.19433L3.48575 2.15719L3.54305 2.12068L3.60117 2.08479L3.66011 2.04953L3.71989 2.01489L3.78052 1.98087L3.84202 1.94746L3.9044 1.91466L3.96767 1.88247L4.03184 1.85089L4.09694 1.81991L4.16298 1.78954L4.22998 1.75976L4.29795 1.73058L4.36691 1.70199L4.43688 1.674L4.5079 1.6466L4.57997 1.61979L4.65312 1.59356L4.72738 1.56792L4.80277 1.54286L4.87932 1.51838L4.95707 1.49448L5.03604 1.47116L5.11626 1.44842L5.19779 1.42625L5.28064 1.40466L5.36487 1.38364L5.45052 1.36319L5.53764 1.34331L5.62627 1.324L5.71648 1.30526L5.80832 1.28708L5.90186 1.26947L5.99716 1.25243L6.09431 1.23595L6.19338 1.22003L6.29447 1.20467L6.39767 1.18987L6.5031 1.17563L6.61087 1.16196L6.72111 1.14884L6.83397 1.13628L6.94962 1.12427L7.06824 1.11282L7.19003 1.10193L7.31524 1.09159L7.44413 1.08181L7.57701 1.07258L7.71423 1.06391L7.85622 1.05579L8.00346 1.04822L8.15654 1.0412L8.31619 1.03474L8.48326 1.02883L8.65886 1.02347L8.8444 1.01866L9.04172 1.0144L9.25333 1.01069L9.48282 1.00753L9.73559 1.00493L10.0205 1.00287L10.3541 1.00136L10.7756 1.00041L11.4623 1L12.9596 1.00014L13.4597 1.00084L13.8277 1.00208L14.133 1.00387L14.3997 1.00622L14.6395 1.00911L14.8591 1.01256L15.0629 1.01655L15.2538 1.0211L15.434 1.0262L15.605 1.03185L15.768 1.03805L15.9242 1.0448L16.0741 1.0521L16.2185 1.05996L16.358 1.06837L16.4929 1.07733L16.6236 1.08685L16.7506 1.09692L16.874 1.10755L16.9941 1.11873L17.1111 1.13047L17.2253 1.14277L17.3368 1.15562L17.4457 1.16903L17.5522 1.183L17.6565 1.19753L17.7586 1.21262L17.8586 1.22827L17.9566 1.24448L18.0528 1.26126L18.1472 1.2786L18.2398 1.29651L18.3308 1.31498L18.4202 1.33402L18.508 1.35362L18.5944 1.3738L18.6793 1.39455L18.7628 1.41587L18.8449 1.43776L18.9258 1.46023L19.0053 1.48327L19.0837 1.50689L19.1608 1.53109L19.2367 1.55587L19.3115 1.58123L19.3852 1.60718L19.4578 1.63371L19.5293 1.66084L19.5998 1.68855L19.6692 1.71685L19.7377 1.74574L19.8051 1.77524L19.8716 1.80533L19.9372 1.83602L20.0018 1.86731L20.0655 1.89921L20.1283 1.93171L20.1902 1.96483L20.2512 1.99856L20.3114 2.0329L20.3708 2.06787L20.4293 2.10345L20.487 2.13966L20.5438 2.1765L20.5999 2.21397L20.6552 2.25208L20.7097 2.29083L20.7634 2.33021L20.8164 2.37025L20.8686 2.41093L20.9201 2.45227L20.9708 2.49427L21.0208 2.53693L21.0701 2.58026L21.1186 2.62427L21.1665 2.66895L21.2136 2.71432L21.2601 2.76038L21.3058 2.80713L21.3509 2.85458L21.3953 2.90274L21.439 2.95161L21.482 3.00121L21.5244 3.05153L21.5661 3.10258L21.6071 3.15438L21.6475 3.20693L21.6873 3.26023L21.7264 3.31431L21.7648 3.36916L21.8027 3.42479L21.8399 3.48122L21.8764 3.53845L21.9124 3.5965L21.9477 3.65538L21.9824 3.71509L22.0164 3.77566L22.0499 3.83709L22.0827 3.89939L22.115 3.96259L22.1466 4.02669L22.1776 4.09172L22.208 4.15768L22.2379 4.2246L22.2671 4.29249L22.2957 4.36137L22.3238 4.43127L22.3512 4.5022L22.3781 4.57418L22.4044 4.64725L22.43 4.72141L22.4552 4.79672L22.4797 4.87318L22.5036 4.95083L22.527 5.0297L22.5498 5.10982L22.572 5.19124L22.5936 5.27399L22.6147 5.35811L22.6352 5.44364L22.6551 5.53064L22.6745 5.61915L22.6933 5.70923L22.7115 5.80094L22.7291 5.89434L22.7462 5.9895L22.7627 6.0865L22.7787 6.18541L22.7941 6.28634L22.809 6.38937L22.8232 6.49461L22.837 6.60219L22.8501 6.71223L22.8627 6.82488L22.8748 6.9403L22.8863 7.05867L22.8972 7.18021L22.9076 7.30513L22.9174 7.43372L22.9267 7.56627L22.9354 7.70313L22.9436 7.84472L22.9512 7.99152L22.9582 8.14412L22.9648 8.30321L22.9707 8.46965L22.9761 8.64453L22.981 8.82921L22.9853 9.02551L22.989 9.23587L22.9922 9.46377L22.9949 9.71443L22.997 9.99632L22.9985 10.3251L22.9995 10.7369L23 11.3792L23 12Z" stroke="#FBBF13"/>
<path d="M17.5 18H6.5C6.2 18 6 17.8 6 17.5C6 15.85 6.65 14.3 7.9 13.15C8.65 12.45 9.55 11.95 10.55 11.7C10.65 11.65 10.8 11.7 10.9 11.75C11.6 12.1 12.45 12.1 13.15 11.75C13.25 11.7 13.4 11.7 13.5 11.7C16.15 12.4 18 14.75 18 17.5C18 17.8 17.8 18 17.5 18ZM7 17H17C16.8 15 15.4 13.3 13.45 12.7C12.55 13.1 11.55 13.1 10.65 12.7C9.9 12.9 9.2 13.3 8.6 13.85C7.7 14.7 7.15 15.8 7 17Z" fill="#FBBF13"/>
<path d="M12 13C10.05 13 8.5 11.45 8.5 9.5C8.5 7.55 10.05 6 12 6C13.95 6 15.5 7.55 15.5 9.5C15.5 11.45 13.95 13 12 13ZM12 7C10.6 7 9.5 8.1 9.5 9.5C9.5 10.9 10.6 12 12 12C13.4 12 14.5 10.9 14.5 9.5C14.5 8.1 13.4 7 12 7Z" fill="#FBBF13"/>
<path d="M12 16.4999C11.7 16.4999 11.5 16.2999 11.5 15.9999V12.9999C11.5 12.7499 11.7 12.4999 12 12.4999C12.25 12.4999 12.5 12.6999 12.5 12.9999V15.9999C12.5 16.2999 12.3 16.4999 12 16.4999Z" fill="#FBBF13"/>
</svg>
